<?xml version="1.0" encoding="utf-8"?>
<!-- Generator: Adobe Illustrator 16.0.0, SVG Export Plug-In . SVG Version: 6.00 Build 0)  -->
<!DOCTYPE svg PUBLIC "-//W3C//DTD SVG 1.1//EN" "http://www.w3.org/Graphics/SVG/1.1/DTD/svg11.dtd">
<svg version="1.1" id="Layer_1" xmlns="http://www.w3.org/2000/svg" xmlns:xlink="http://www.w3.org/1999/xlink" x="0px" y="0px"
	 width="595.662px" height="280.734px" viewBox="-218.928 -103.181 595.662 280.734"
	 enable-background="new -218.928 -103.181 595.662 280.734" xml:space="preserve">
<g>
	<path fill="#2069E0" d="M31.833,112.791H6.181c0-118.733,93.622-215.327,208.71-215.327v25.656
		C113.948-76.879,31.833,8.198,31.833,112.791z"/>
</g>
<g>
	<path fill="#5D5D5D" d="M324.533,112.85c-5.729,0-11.501-0.457-17.267-1.382c-58.614-9.407-98.657-64.745-89.254-123.357
		c9.414-58.613,64.759-98.645,123.362-89.249c9.938,1.596,19.57,4.549,28.612,8.781l-10.866,23.232
		c-6.894-3.224-14.222-5.469-21.808-6.685c-44.637-7.161-86.8,23.335-93.97,67.981c-7.158,44.647,23.334,86.795,67.989,93.961
		c17.506,2.802,35.033-0.007,50.688-8.136l11.825,22.763C358.424,108.758,341.637,112.85,324.533,112.85z"/>
</g>
<path fill="#5D5D5D" d="M-2.378,5.089c0-57.658-45.068-104.762-101.902-108.074c-2.116-0.116-4.231-0.195-6.377-0.195
	c-59.791,0-108.271,48.47-108.271,108.27c0,59.796,48.481,108.28,108.271,108.28c32.866,0,62.286-14.66,82.144-37.772v38.352h26.139
	 M-28.517,14c-4.457,41.382-39.586,73.71-82.144,73.71c-45.55,0-82.619-37.054-82.619-82.625c0-45.552,37.062-82.617,82.619-82.617
	c2.149,0,4.269,0.111,6.377,0.266C-61.7-73.995-28.031-38.324-28.031,5.085c0,2.026-0.096,4.016-0.244,6.009"/>
<g>
	<path fill="#5D5D5D" d="M130.631,172.64l3.104-4.847c2.197,2.267,6.528,4.331,10.532,4.331c4.073,0,6.203-1.681,6.203-4.14
		c0-6.138-18.869-1.743-18.869-13.761c0-5.109,4.394-9.437,12.282-9.437c5.297,0,9.308,1.872,12.083,4.327l-2.846,4.785
		c-1.872-2.072-5.293-3.749-9.237-3.749c-3.554,0-5.75,1.677-5.75,3.874c0,5.492,18.869,1.356,18.869,13.765
		c0,5.559-4.589,9.761-12.99,9.761C138.645,177.554,133.867,175.807,130.631,172.64z"/>
	<path fill="#5D5D5D" d="M161.92,161.139c0-8.986,6.074-16.352,16.023-16.352c9.953,0,16.027,7.365,16.027,16.352
		c0,8.913-6.074,16.415-16.027,16.415C167.998,177.554,161.92,170.06,161.92,161.139z M186.927,161.139
		c0-5.492-3.166-10.34-8.983-10.34c-5.747,0-8.979,4.848-8.979,10.34c0,5.556,3.229,10.403,8.979,10.403
		C183.764,171.542,186.927,166.694,186.927,161.139z"/>
	<path fill="#5D5D5D" d="M202.586,176.776v-25.332h-5.172v-5.883h5.172v-1.748c0-6.782,3.94-10.785,9.823-10.785
		c2.843,0,5.622,0.707,7.494,2.713l-2.646,4.198c-0.907-0.837-2.068-1.356-3.558-1.356c-2.713,0-4.323,1.751-4.323,5.238v1.747
		h6.333v5.88h-6.333v25.331h-6.79V176.776z"/>
	<path fill="#5D5D5D" d="M222.304,169.47v-18.025h-5.172v-5.883h5.172v-8.53h6.786v8.53h6.336v5.883h-6.336v16.349
		c0,2.134,1.032,3.749,2.971,3.749c1.294,0,2.455-0.583,2.972-1.165l1.618,5.168c-1.225,1.099-3.229,2.005-6.333,2.005
		C225.013,177.554,222.304,174.708,222.304,169.47z"/>
	<path fill="#5D5D5D" d="M268.772,176.776l-7.306-22.877l-7.236,22.877h-7.11l-9.691-31.215h7.044l6.592,22.685l7.431-22.685h6.013
		l7.365,22.685l6.591-22.685h7.106l-9.687,31.215H268.772z"/>
	<path fill="#5D5D5D" d="M309.438,176.776v-3.425c-2.325,2.717-6.008,4.202-10.145,4.202c-5.038,0-10.793-3.491-10.793-10.34
		c0-7.239,5.688-10.211,10.793-10.211c4.266,0,7.815,1.356,10.145,4.011v-4.655c0-3.616-3.037-5.813-7.302-5.813
		c-3.487,0-6.591,1.29-9.241,4.003l-2.843-4.711c3.62-3.494,8.144-5.043,13.119-5.043c6.982,0,13.054,2.909,13.054,11.243v20.742
		h-6.787V176.776z M309.438,169.669v-4.785c-1.614-2.13-4.522-3.229-7.431-3.229c-3.812,0-6.721,2.263-6.721,5.617
		c0,3.429,2.912,5.626,6.721,5.626C304.911,172.898,307.823,171.8,309.438,169.669z"/>
	<path fill="#5D5D5D" d="M325.02,176.776v-31.215h6.786v4.526c2.396-2.979,6.138-5.301,10.148-5.301v6.724
		c-0.579-0.133-1.228-0.199-2.068-0.199c-2.912,0-6.72,1.939-8.08,4.198v21.263h-6.786V176.776z"/>
	<path fill="#5D5D5D" d="M345.585,161.139c0-9.05,6.591-16.352,15.832-16.352c9.367,0,15.316,7.11,15.316,16.927v1.681h-24.042
		c0.517,4.652,4.011,8.597,9.887,8.597c3.104,0,6.657-1.228,8.921-3.494l3.097,4.464c-3.167,2.967-7.756,4.589-12.662,4.589
		C352.5,177.554,345.585,171.025,345.585,161.139z M361.347,150.346c-5.746,0-8.463,4.46-8.721,8.206h17.575
		C370.01,154.865,367.489,150.346,361.347,150.346z"/>
</g>
</svg>
